<svg width="20" height="20" viewBox="0 0 20 20" fill="none" xmlns="http://www.w3.org/2000/svg">
<path d="M11.9585 1.66699H8.0418C7.17513 1.66699 6.4668 2.36699 6.4668 3.23366V4.01699C6.4668 4.88366 7.1668 5.58366 8.03346 5.58366H11.9585C12.8251 5.58366 13.5251 4.88366 13.5251 4.01699V3.23366C13.5335 2.36699 12.8251 1.66699 11.9585 1.66699Z" fill="#292D32"/>
<path d="M14.3667 4.01689C14.3667 5.34189 13.2834 6.42523 11.9584 6.42523H8.0417C6.7167 6.42523 5.63337 5.34189 5.63337 4.01689C5.63337 3.55023 5.13337 3.25856 4.7167 3.47523C3.5417 4.10023 2.7417 5.34189 2.7417 6.76689V14.6086C2.7417 16.6586 4.4167 18.3336 6.4667 18.3336H13.5334C15.5834 18.3336 17.2584 16.6586 17.2584 14.6086V6.76689C17.2584 5.34189 16.4584 4.10023 15.2834 3.47523C14.8667 3.25856 14.3667 3.55023 14.3667 4.01689ZM12.7834 10.6086L9.45003 13.9419C9.32503 14.0669 9.1667 14.1252 9.00837 14.1252C8.85003 14.1252 8.6917 14.0669 8.5667 13.9419L7.3167 12.6919C7.07503 12.4502 7.07503 12.0502 7.3167 11.8086C7.55837 11.5669 7.95837 11.5669 8.20003 11.8086L9.00837 12.6169L11.9 9.72523C12.1417 9.48356 12.5417 9.48356 12.7834 9.72523C13.025 9.96689 13.025 10.3669 12.7834 10.6086Z" fill="#292D32"/>
</svg>
