<svg width="20" height="20" viewBox="0 0 20 20" fill="none" xmlns="http://www.w3.org/2000/svg">
<path d="M5.00026 4.30827L3.35859 5.38327C1.75026 6.43327 1.75026 8.78327 3.35859 9.83327L8.37526 13.1083C9.27526 13.6999 10.7586 13.6999 11.6586 13.1083L16.6503 9.83327C18.2503 8.78327 18.2503 6.4416 16.6503 5.3916L11.6586 2.1166C10.7586 1.52493 9.27526 1.52493 8.37526 2.1166" stroke="#292D32" stroke-width="1.5" stroke-linecap="round" stroke-linejoin="round"/>
<path d="M4.69193 10.9004L4.68359 14.8087C4.68359 15.8671 5.50026 17.0004 6.50026 17.3337L9.15859 18.2171C9.61693 18.3671 10.3753 18.3671 10.8419 18.2171L13.5003 17.3337C14.5003 17.0004 15.3169 15.8671 15.3169 14.8087V10.9421" stroke="#292D32" stroke-width="1.5" stroke-linecap="round" stroke-linejoin="round"/>
<path d="M17.833 12.5V7.5" stroke="#292D32" stroke-width="1.5" stroke-linecap="round" stroke-linejoin="round"/>
</svg>
