<svg width="20" height="20" viewBox="0 0 20 20" fill="none" xmlns="http://www.w3.org/2000/svg">
<path d="M13.492 1.66699H6.50866C3.47533 1.66699 1.66699 3.47533 1.66699 6.50866V13.492C1.66699 16.5253 3.47533 18.3337 6.50866 18.3337H13.492C16.5253 18.3337 18.3337 16.5253 18.3337 13.492V6.50866C18.3337 3.47533 16.5253 1.66699 13.492 1.66699ZM8.30866 12.417L6.43366 14.292C6.30866 14.417 6.15033 14.4753 5.99199 14.4753C5.83366 14.4753 5.66699 14.417 5.55033 14.292L4.92533 13.667C4.67533 13.4253 4.67533 13.0253 4.92533 12.7837C5.16699 12.542 5.55866 12.542 5.80866 12.7837L5.99199 12.967L7.42533 11.5337C7.66699 11.292 8.05866 11.292 8.30866 11.5337C8.55033 11.7753 8.55033 12.1753 8.30866 12.417ZM8.30866 6.58366L6.43366 8.45866C6.30866 8.58366 6.15033 8.64199 5.99199 8.64199C5.83366 8.64199 5.66699 8.58366 5.55033 8.45866L4.92533 7.83366C4.67533 7.59199 4.67533 7.19199 4.92533 6.95033C5.16699 6.70866 5.55866 6.70866 5.80866 6.95033L5.99199 7.13366L7.42533 5.70033C7.66699 5.45866 8.05866 5.45866 8.30866 5.70033C8.55033 5.94199 8.55033 6.34199 8.30866 6.58366ZM14.6337 13.8503H10.2587C9.91699 13.8503 9.63366 13.567 9.63366 13.2253C9.63366 12.8837 9.91699 12.6003 10.2587 12.6003H14.6337C14.9837 12.6003 15.2587 12.8837 15.2587 13.2253C15.2587 13.567 14.9837 13.8503 14.6337 13.8503ZM14.6337 8.01699H10.2587C9.91699 8.01699 9.63366 7.73366 9.63366 7.39199C9.63366 7.05033 9.91699 6.76699 10.2587 6.76699H14.6337C14.9837 6.76699 15.2587 7.05033 15.2587 7.39199C15.2587 7.73366 14.9837 8.01699 14.6337 8.01699Z" fill="#292D32"/>
</svg>
