<svg width="22" height="22" viewBox="0 0 22 22" fill="none" xmlns="http://www.w3.org/2000/svg">
<path d="M18.3701 6.25122L13.0901 2.55706C11.6509 1.54872 9.44172 1.60372 8.05755 2.67622L3.46505 6.26039C2.54839 6.97539 1.82422 8.44206 1.82422 9.59706V15.9221C1.82422 18.2596 3.72172 20.1662 6.05922 20.1662H15.9409C18.2784 20.1662 20.1759 18.2687 20.1759 15.9312V9.71622C20.1759 8.47872 19.3784 6.95706 18.3701 6.25122ZM11.6876 16.4996C11.6876 16.8754 11.3759 17.1871 11.0001 17.1871C10.6242 17.1871 10.3126 16.8754 10.3126 16.4996V13.7496C10.3126 13.3737 10.6242 13.0621 11.0001 13.0621C11.3759 13.0621 11.6876 13.3737 11.6876 13.7496V16.4996Z" fill="#292D32"/>
</svg>
