<svg width="20" height="20" viewBox="0 0 20 20" fill="none" xmlns="http://www.w3.org/2000/svg">
<path d="M15.0004 5.967C14.9504 5.95866 14.8921 5.95866 14.8421 5.967C13.6921 5.92533 12.7754 4.98366 12.7754 3.81699C12.7754 2.62533 13.7337 1.66699 14.9254 1.66699C16.1171 1.66699 17.0754 2.63366 17.0754 3.81699C17.0671 4.98366 16.1504 5.92533 15.0004 5.967Z" stroke="#292D32" stroke-width="1.5" stroke-linecap="round" stroke-linejoin="round"/>
<path d="M14.1422 12.0338C15.2839 12.2255 16.5422 12.0255 17.4255 11.4338C18.6005 10.6505 18.6005 9.36713 17.4255 8.58379C16.5339 7.99213 15.2589 7.79212 14.1172 7.99212" stroke="#292D32" stroke-width="1.5" stroke-linecap="round" stroke-linejoin="round"/>
<path d="M4.97539 5.967C5.02539 5.95866 5.08372 5.95866 5.13372 5.967C6.28372 5.92533 7.20039 4.98366 7.20039 3.81699C7.20039 2.62533 6.24206 1.66699 5.05039 1.66699C3.85873 1.66699 2.90039 2.63366 2.90039 3.81699C2.90872 4.98366 3.82539 5.92533 4.97539 5.967Z" stroke="#292D32" stroke-width="1.5" stroke-linecap="round" stroke-linejoin="round"/>
<path d="M5.83353 12.0338C4.69186 12.2255 3.43353 12.0255 2.5502 11.4338C1.3752 10.6505 1.3752 9.36713 2.5502 8.58379C3.44186 7.99213 4.71686 7.79212 5.85853 7.99212" stroke="#292D32" stroke-width="1.5" stroke-linecap="round" stroke-linejoin="round"/>
<path d="M9.99941 12.1916C9.94941 12.1833 9.89108 12.1833 9.84108 12.1916C8.69108 12.1499 7.77441 11.2083 7.77441 10.0416C7.77441 8.84994 8.73275 7.8916 9.92441 7.8916C11.1161 7.8916 12.0744 8.85827 12.0744 10.0416C12.0661 11.2083 11.1494 12.1583 9.99941 12.1916Z" stroke="#292D32" stroke-width="1.5" stroke-linecap="round" stroke-linejoin="round"/>
<path d="M12.4246 14.8168C11.0996 13.9335 8.90794 13.9335 7.57461 14.8168C6.39961 15.6001 6.39961 16.8835 7.57461 17.6668C8.90794 18.5585 11.0913 18.5585 12.4246 17.6668" stroke="#292D32" stroke-width="1.5" stroke-linecap="round" stroke-linejoin="round"/>
</svg>
