<svg width="364" height="454" viewBox="0 0 364 454" fill="none" xmlns="http://www.w3.org/2000/svg">
<path d="M272.375 407.75C272.375 407.757 272.375 407.764 272.375 407.77C297.062 408.493 316.943 428.347 317.667 453C317.674 453 317.681 453 317.688 453C317.694 453 317.701 453 317.708 453C318.432 428.347 338.313 408.493 363 407.77C363 407.764 363 407.757 363 407.75C363 407.743 363 407.736 363 407.73C338.313 407.007 318.432 387.153 317.708 362.5M272.375 407.75C272.375 407.743 272.375 407.736 272.375 407.73C297.062 407.007 316.943 387.153 317.667 362.5M272.375 407.75C272.375 382.759 252.088 362.5 227.063 362.5M272.375 407.75C272.375 432.741 252.088 453 227.063 453C202.037 453 181.75 432.741 181.75 407.75C181.75 382.759 202.037 362.5 227.063 362.5M317.667 362.5C317.674 362.5 317.681 362.5 317.688 362.5M317.667 362.5C316.943 337.847 297.062 317.993 272.375 317.27M317.688 362.5C317.694 362.5 317.701 362.5 317.708 362.5M317.688 362.5C292.662 362.5 272.375 342.241 272.375 317.25M317.688 362.5C342.713 362.5 363 342.241 363 317.25M317.708 362.5C318.432 337.847 338.313 317.993 363 317.27C363 317.264 363 317.257 363 317.25M227.063 362.5C227.069 362.5 227.076 362.5 227.083 362.5C227.807 337.847 247.688 317.993 272.375 317.27M227.063 362.5C227.056 362.5 227.049 362.5 227.042 362.5C226.318 337.847 206.437 317.993 181.75 317.27C181.75 317.264 181.75 317.257 181.75 317.25M45.8126 453C45.8194 453 45.8263 453 45.8331 453C46.5568 428.347 66.4377 408.493 91.1251 407.77C91.1251 407.764 91.1251 407.757 91.1251 407.75M45.8126 453C45.8058 453 45.799 453 45.7922 453C45.0685 428.347 25.1875 408.493 0.500145 407.77C0.500145 407.764 0.500145 407.757 0.500145 407.75M45.8126 453C20.7872 453 0.500149 432.741 0.500145 407.75M45.8126 453C70.838 453 91.1251 432.741 91.1251 407.75M0.500145 407.75C0.500145 407.743 0.500145 407.736 0.500145 407.73C25.1875 407.007 45.0685 387.153 45.7922 362.5C45.799 362.5 45.8058 362.5 45.8126 362.5M0.500145 407.75C0.50014 382.759 20.7872 362.5 45.8126 362.5M45.8126 362.5C45.8194 362.5 45.8262 362.5 45.833 362.5C46.5568 387.153 66.4377 407.007 91.1251 407.73C91.1251 407.736 91.1251 407.743 91.1251 407.75M45.8126 362.5C70.838 362.5 91.1251 382.759 91.1251 407.75M272.375 317.27C272.375 317.264 272.375 317.257 272.375 317.25M272.375 317.25C272.375 317.243 272.375 317.236 272.375 317.23M272.375 317.25C272.375 292.259 292.662 272 317.687 272M272.375 317.23C297.062 316.507 316.943 296.653 317.667 272M272.375 317.23C247.688 316.507 227.807 296.653 227.083 272C227.076 272 227.069 272 227.063 272M317.667 272C317.674 272 317.681 272 317.687 272M317.667 272C316.943 247.347 297.062 227.493 272.375 226.77C272.375 226.764 272.375 226.757 272.375 226.75M317.687 272C317.694 272 317.701 272 317.708 272M317.687 272C342.713 272 363 292.259 363 317.25M317.708 272C318.432 296.653 338.313 316.507 363 317.23C363 317.236 363 317.243 363 317.25M317.708 272C318.432 247.347 338.313 227.493 363 226.77C363 226.764 363 226.757 363 226.75C363 226.743 363 226.736 363 226.73C338.313 226.007 318.432 206.153 317.708 181.5C317.701 181.5 317.694 181.5 317.687 181.5C317.681 181.5 317.674 181.5 317.667 181.5C316.943 206.153 297.062 226.007 272.375 226.73C272.375 226.736 272.375 226.743 272.375 226.75M181.75 317.25C181.75 317.243 181.75 317.236 181.75 317.23C206.437 316.507 226.318 296.653 227.042 272C227.049 272 227.056 272 227.063 272M181.75 317.25C181.75 292.259 161.463 272 136.438 272C111.412 272 91.1251 292.259 91.1251 317.25C91.1251 342.241 111.412 362.5 136.438 362.5C161.463 362.5 181.75 342.241 181.75 317.25ZM227.063 272C202.037 272 181.75 251.741 181.75 226.75C181.75 201.759 202.037 181.5 227.063 181.5M227.063 272C252.088 272 272.375 251.741 272.375 226.75M272.375 226.75C272.375 201.759 252.088 181.5 227.063 181.5M227.063 181.5C227.069 181.5 227.076 181.5 227.083 181.5C227.807 156.847 247.688 136.993 272.375 136.27C272.375 136.264 272.375 136.257 272.375 136.25M227.063 181.5C227.056 181.5 227.049 181.5 227.042 181.5C226.318 156.847 206.437 136.993 181.75 136.27M227.063 181.5C202.037 181.5 181.75 161.241 181.75 136.25M227.063 181.5C252.088 181.5 272.375 161.241 272.375 136.25M45.8126 272C45.8194 272 45.8262 272 45.833 272C46.5568 247.347 66.4377 227.493 91.1251 226.77C91.1251 226.764 91.1251 226.757 91.1251 226.75M45.8126 272C45.8058 272 45.799 272 45.7922 272C45.0684 247.347 25.1875 227.493 0.500113 226.77C0.500113 226.764 0.500113 226.757 0.500113 226.75M45.8126 272C20.7872 272 0.500117 251.741 0.500113 226.75M45.8126 272C70.838 272 91.1251 251.741 91.1251 226.75M0.500113 226.75C0.500113 226.743 0.500113 226.736 0.500113 226.73C25.1875 226.007 45.0684 206.153 45.7922 181.5C45.799 181.5 45.8058 181.5 45.8126 181.5M0.500113 226.75C0.500109 201.759 20.7872 181.5 45.8126 181.5M45.8126 181.5C45.8194 181.5 45.8262 181.5 45.833 181.5C46.5568 206.153 66.4377 226.007 91.1251 226.73C91.1251 226.736 91.1251 226.743 91.1251 226.75M45.8126 181.5C70.838 181.5 91.1251 201.759 91.1251 226.75M45.8126 181.5C20.7872 181.5 0.500102 161.241 0.500097 136.25C0.500093 111.259 20.7872 91.0001 45.8126 91.0001M45.8126 181.5C70.838 181.5 91.1251 161.241 91.1251 136.25M181.75 136.27C181.75 136.264 181.75 136.257 181.75 136.25M181.75 136.27C157.063 136.993 137.182 156.847 136.458 181.5C136.451 181.5 136.444 181.5 136.438 181.5C136.431 181.5 136.424 181.5 136.417 181.5C135.693 156.847 115.812 136.993 91.1251 136.27C91.1251 136.264 91.1251 136.257 91.1251 136.25M181.75 136.25C181.75 136.243 181.75 136.236 181.75 136.23M181.75 136.25C181.75 111.259 202.037 91 227.062 91M181.75 136.23C206.437 135.507 226.318 115.653 227.042 91C227.049 91 227.056 91 227.062 91M181.75 136.23C157.063 135.507 137.182 115.653 136.458 91M227.062 91C227.069 91 227.076 91 227.083 91C227.807 115.653 247.688 135.507 272.375 136.23C272.375 136.236 272.375 136.243 272.375 136.25M227.062 91C252.088 91 272.375 111.259 272.375 136.25M91.1251 136.25C91.1251 136.243 91.1251 136.236 91.1251 136.23C115.812 135.507 135.693 115.653 136.417 91M91.1251 136.25C91.1251 111.259 70.838 91.0001 45.8126 91.0001M136.417 91C136.424 91 136.431 91 136.438 91M136.417 91C135.693 66.3467 115.812 46.4932 91.125 45.7704M136.438 91C136.444 91 136.451 91 136.458 91M136.438 91C111.412 91 91.125 70.7409 91.125 45.75M136.438 91C161.463 91 181.75 70.7409 181.75 45.75M136.458 91C137.182 66.3467 157.063 46.4932 181.75 45.7704C181.75 45.7636 181.75 45.7568 181.75 45.75M45.8126 91.0001C45.8194 91.0001 45.8262 91.0001 45.833 91.0001C46.5567 66.3467 66.4377 46.4932 91.125 45.7704M45.8126 91.0001C45.8058 91.0001 45.799 91.0001 45.7922 91.0001C45.0684 66.3467 25.1875 46.4932 0.500081 45.7705C0.500081 45.7637 0.500081 45.7569 0.500081 45.7501C0.500081 45.7433 0.500081 45.7365 0.500081 45.7297C25.1875 45.0069 45.0684 25.1534 45.7921 0.500058C45.7989 0.500058 45.8058 0.500058 45.8126 0.500058C45.8194 0.500058 45.8262 0.500058 45.833 0.500058C46.5567 25.1534 66.4377 45.0069 91.125 45.7297M91.125 45.7704C91.125 45.7636 91.125 45.7568 91.125 45.75M91.125 45.75C91.125 45.7433 91.125 45.7365 91.125 45.7297M91.125 45.75C91.125 20.7592 111.412 0.500046 136.438 0.500042M91.125 45.7297C115.812 45.0069 135.693 25.1534 136.417 0.500042C136.424 0.500042 136.431 0.500042 136.438 0.500042M136.438 0.500042C136.444 0.500042 136.451 0.500042 136.458 0.500042C137.182 25.1534 157.063 45.0069 181.75 45.7296C181.75 45.7364 181.75 45.7432 181.75 45.75M136.438 0.500042C161.463 0.500038 181.75 20.7592 181.75 45.75M181.75 422.833L151.542 453L136.438 437.917L121.333 453L91.1251 422.833L106.229 407.75L91.1251 392.667L121.333 362.5L136.438 377.583L151.542 362.5L181.75 392.667L166.646 407.75L181.75 422.833ZM91.1251 332.333L60.9168 362.5L45.8126 347.417L30.7085 362.5L0.500131 332.333L15.6043 317.25L0.500126 302.167L30.7084 272L45.8126 287.083L60.9168 272L91.1251 302.167L76.0209 317.25L91.1251 332.333ZM181.75 241.833L151.542 272L136.438 256.917L121.333 272L91.1251 241.833L106.229 226.75L91.1251 211.667L121.333 181.5L136.438 196.583L151.542 181.5L181.75 211.667L166.646 226.75L181.75 241.833ZM363 151.333L332.792 181.5L317.687 166.417L302.583 181.5L272.375 151.333L287.479 136.25L272.375 121.167L302.583 91L317.687 106.083L332.792 91L363 121.167L347.896 136.25L363 151.333ZM317.687 0.50001C342.713 0.500006 363 20.7591 363 45.75C363 70.7409 342.713 91 317.687 91C292.662 91 272.375 70.7409 272.375 45.75C272.375 20.7591 292.662 0.500015 317.687 0.50001ZM272.375 60.8334L242.167 91L227.062 75.9167L211.958 91L181.75 60.8334L196.854 45.75L181.75 30.6667L211.958 0.500029L227.062 15.5834L242.167 0.500024L272.375 30.6667L257.271 45.75L272.375 60.8334Z" stroke="white" stroke-opacity="0.5" stroke-linejoin="bevel"/>
</svg>
