<svg width="24" height="24" viewBox="0 0 24 24" fill="none" xmlns="http://www.w3.org/2000/svg">
<path fill-rule="evenodd" clip-rule="evenodd" d="M22 12.015C22 6.74712 17.79 2 11.98 2C6.3 2 2 6.65699 2 11.985C2 18.1642 7.04 22 12 22C13.64 22 15.46 21.5593 16.92 20.698C17.43 20.3876 17.86 20.1572 18.41 20.3375L20.43 20.9384C20.94 21.0986 21.4 20.698 21.25 20.1572L20.58 17.9139C20.47 17.6034 20.49 17.2729 20.65 17.0125C21.51 15.4301 22 13.6975 22 12.015ZM13.3 12.015C13.3 12.7261 12.73 13.2969 12.02 13.307C11.31 13.307 10.74 12.7261 10.74 12.025C10.74 11.314 11.31 10.7431 12.02 10.7431C12.72 10.7331 13.3 11.314 13.3 12.015ZM8.69 12.025C8.69 12.7261 8.12 13.307 7.41 13.307C6.7 13.307 6.13 12.7261 6.13 12.025C6.13 11.314 6.7 10.7431 7.41 10.7431C8.12 10.7431 8.69 11.314 8.69 12.025ZM16.63 13.307C17.33 13.307 17.91 12.7261 17.91 12.025C17.91 11.314 17.34 10.7431 16.63 10.7431C15.92 10.7431 15.35 11.314 15.35 12.025C15.35 12.7261 15.92 13.2969 16.63 13.307Z" fill="white"/>
</svg>
