<svg width="32" height="32" viewBox="0 0 32 32" fill="none" xmlns="http://www.w3.org/2000/svg">
<rect width="32" height="32" rx="16" fill="#F3712C" fill-opacity="0.1"/>
<g clip-path="url(#clip0_557_54164)">
<path fill-rule="evenodd" clip-rule="evenodd" d="M14.7245 25.4943C15.2562 25.7172 15.799 25.8749 16.3848 25.7719C16.5792 25.7323 16.7617 25.6835 16.9409 25.62C17.7317 25.3392 18.4833 24.9529 19.2241 24.5394C20.4678 23.8451 21.6652 23.0625 22.8001 22.1614C23.5664 21.5527 24.2913 20.8915 24.8845 20.0657C25.2878 19.5047 25.6092 18.8933 25.7797 18.1925C25.8499 17.9035 25.7678 17.7131 25.5237 17.5925C25.3188 17.4912 25.1115 17.3965 24.9041 17.3018C24.7801 17.2449 24.6954 17.1443 24.6366 17.0135C24.5992 16.9304 24.5641 16.8455 24.5319 16.7596C24.2564 16.027 23.9723 15.2992 23.6127 14.6121C23.5615 14.5141 23.5576 14.4172 23.5794 14.3092C23.7376 13.5261 23.8503 12.7345 23.8911 11.9327C23.929 11.2244 23.9076 10.514 23.8272 9.80921C23.7331 9.00019 23.5752 8.20725 23.3278 7.43863C23.216 7.09157 23.1023 6.74392 22.8933 6.45039C22.7709 6.27863 22.6129 6.19216 22.4129 6.19941C22.2047 6.20726 22.0423 6.33353 21.8843 6.45784C21.399 6.83981 20.936 7.25471 20.4786 7.67804C19.4956 8.58745 18.5688 9.56255 17.7188 10.6286C17.6046 10.7718 17.5462 10.7688 17.4682 10.6022C17.218 10.0688 16.8703 9.62862 16.4517 9.25764C16.235 9.06549 15.9976 8.90941 15.7292 8.82588C15.4009 8.72372 15.2097 8.92451 15.2709 9.29823C15.2866 9.3947 15.3141 9.48647 15.3431 9.57804C15.3892 9.72372 15.4497 9.86196 15.5103 10C15.5456 10.0804 15.5807 10.1604 15.6131 10.242C15.6425 10.3165 15.6703 10.391 15.6686 10.4749C15.6674 10.5269 15.6543 10.572 15.6105 10.5969C15.5645 10.6229 15.5266 10.5986 15.4919 10.5661C15.4496 10.5263 15.4213 10.4743 15.3945 10.421C15.2803 10.1955 15.1654 9.97 15.0225 9.7647C14.8882 9.57176 14.7445 9.38882 14.5497 9.27078C14.2531 9.09078 14.038 9.2347 14.0394 9.61C14.0399 9.78764 14.0643 9.96235 14.0884 10.1371C14.098 10.2065 14.1076 10.2757 14.1158 10.3451C14.1164 10.352 14.1174 10.3588 14.1184 10.3655C14.1248 10.41 14.1311 10.4549 14.0886 10.5012C14.0782 10.4891 14.0678 10.4771 14.0574 10.4651C14.0351 10.4399 14.0136 10.4142 13.9927 10.3878C13.935 10.3135 13.8782 10.2386 13.8211 10.1635C13.707 10.0131 13.5927 9.86274 13.4723 9.71882C12.5815 8.65431 11.5962 7.70941 10.559 6.83118L10.5052 6.78569C10.3041 6.6151 10.1027 6.44432 9.88171 6.30608C9.55425 6.10137 9.25621 6.18569 9.04661 6.53588C8.90837 6.76667 8.8119 7.0202 8.727 7.27902C8.39955 8.27706 8.21719 9.30941 8.1368 10.3686C8.08543 11.0423 8.09425 11.7145 8.1468 12.3853C8.19935 13.0549 8.29504 13.7188 8.43249 14.3739C8.44955 14.4555 8.43739 14.521 8.40112 14.5925C8.28327 14.8253 8.16778 15.0596 8.05739 15.2969C7.877 15.6855 7.72523 16.089 7.57367 16.4921C7.51739 16.6418 7.46112 16.7916 7.40327 16.9404C7.32661 17.1382 7.20347 17.2674 7.02151 17.3429L6.90523 17.3902C6.73347 17.4594 6.56131 17.5288 6.40249 17.6327C6.24112 17.7386 6.17268 17.9119 6.20308 18.1161C6.2221 18.2451 6.26072 18.3672 6.30112 18.4886C6.58092 19.3251 7.04347 20.0233 7.59778 20.6527C8.21092 21.3488 8.90896 21.9249 9.62857 22.47C10.3297 23.0014 11.0564 23.4859 11.798 23.9419C12.746 24.5247 13.7105 25.0694 14.7245 25.4943ZM16.9072 24.4715C16.7074 24.5549 16.5043 24.6262 16.2968 24.6813C15.8688 24.7798 15.4937 24.6276 15.1211 24.4764L15.0574 24.4506C14.1095 24.0682 13.2192 23.5478 12.3378 23.0066C11.3319 22.3894 10.356 21.7172 9.42484 20.9668C8.80229 20.4649 8.19484 19.94 7.72661 19.2441C7.65063 19.1339 7.58468 19.0171 7.52955 18.8951C7.42308 18.6525 7.47425 18.4794 7.69367 18.3704C7.9717 18.2321 8.24367 18.0837 8.49484 17.8894L8.56053 17.8384C8.82719 17.6321 9.09347 17.4261 9.37425 17.2435C9.9221 16.8874 10.5115 16.7135 11.1425 16.7184C11.9495 16.7249 12.6676 17.0341 13.3274 17.5382C14.167 18.18 14.7901 19.0233 15.2052 20.0645C15.3456 20.4165 15.4658 20.7768 15.5829 21.139C15.6123 21.23 15.648 21.3194 15.6886 21.4051C15.7548 21.5447 15.8635 21.6274 16.0035 21.6259C16.1472 21.6243 16.256 21.5368 16.3245 21.3937C16.3896 21.2576 16.435 21.1125 16.4805 20.9676L16.4931 20.928L16.5027 20.8976C16.7556 20.1019 17.0713 19.3404 17.5601 18.6912C18.2596 17.7621 19.1007 17.0623 20.1831 16.8055C21.138 16.5786 22.0254 16.7943 22.8435 17.3819C23.039 17.5221 23.2321 17.6667 23.425 17.811C23.5474 17.9025 23.6701 17.9941 23.7931 18.0847C23.9101 18.171 24.0372 18.2367 24.1641 18.3025L24.2164 18.3298L24.236 18.34C24.2721 18.3588 24.3082 18.3774 24.3429 18.3988C24.5327 18.5165 24.577 18.6682 24.4762 18.8851C24.3786 19.0943 24.2521 19.2823 24.1172 19.4629C23.7433 19.9639 23.3001 20.38 22.8372 20.7704C21.9374 21.529 20.9862 22.1988 20.0043 22.8141C19.0037 23.441 17.9837 24.0227 16.9072 24.4715ZM21.7788 8.89176C21.8843 8.85686 21.9788 8.86431 22.0547 8.96451C22.1597 9.12157 22.1619 9.29333 22.1639 9.45902C22.1643 9.48666 22.1645 9.51411 22.1652 9.54137C22.1922 10.4479 22.1274 11.3548 21.9719 12.2482C21.967 12.2761 21.9601 12.3035 21.9529 12.3306C21.909 12.5 21.8415 12.5296 21.7211 12.4174C21.3805 12.102 21.0221 11.8063 20.6478 11.5318C20.5081 11.43 20.3663 11.3311 20.2225 11.2353C20.155 11.1896 20.0878 11.1441 20.0205 11.098C20.0121 11.0922 20.0037 11.0864 19.9952 11.0806C19.9661 11.0619 19.9382 11.0412 19.9117 11.0188C19.7966 10.9169 19.7852 10.8145 19.879 10.6855C20.119 10.3545 20.3848 10.0502 20.665 9.76313C20.9372 9.48392 21.2243 9.22451 21.5441 9.0151C21.619 8.96608 21.6945 8.91961 21.7788 8.89176ZM10.6946 9.18941C10.8672 9.32353 11.0299 9.47176 11.187 9.62764C11.5052 9.94255 11.789 10.2722 12.0646 10.6104L12.086 10.6378C12.2433 10.8486 12.2258 10.9506 12.0123 11.0865C11.4392 11.4514 10.8954 11.8649 10.389 12.339C10.3558 12.37 10.3214 12.3996 10.2858 12.4278C10.1597 12.5282 10.079 12.4971 10.0466 12.3249C10.0041 12.0994 9.96327 11.8727 9.93543 11.6445C9.84327 10.8837 9.82131 10.1186 9.84523 9.35157C9.84857 9.24921 9.86033 9.14921 9.8968 9.05549C9.95837 8.89666 10.0782 8.8349 10.2246 8.89137C10.3966 8.95745 10.5452 9.07313 10.6933 9.18843L10.6946 9.18941ZM20.055 19.6717C19.7362 18.977 18.8972 18.9378 18.5225 19.571C18.4103 19.7745 18.3564 19.9902 18.3833 20.217C18.447 20.7594 18.8284 21.1137 19.3145 21.0978C19.9237 21.078 20.3341 20.2794 20.055 19.6717ZM11.9676 20.5202C11.7384 19.9117 12.0368 19.2578 12.5901 19.1394C13.0545 19.0402 13.5278 19.3843 13.6178 19.8868C13.719 20.451 13.4374 20.9515 12.9494 21.0745C12.5548 21.1741 12.1945 20.9725 11.9676 20.5202ZM15.3929 23.1159C15.5074 23.2833 15.6566 23.3886 15.8492 23.4345L15.8796 23.437C15.8956 23.4384 15.9094 23.4394 15.9229 23.4415C16.2725 23.4961 16.6335 23.2376 16.7386 22.8572C16.8166 22.5747 16.697 22.278 16.4539 22.1653C16.2029 22.049 15.9433 22.0288 15.6819 22.1129C15.2546 22.2506 15.1213 22.7188 15.3929 23.1159Z" fill="#F3712C"/>
</g>
<defs>
<clipPath id="clip0_557_54164">
<rect width="20" height="20" fill="white" transform="translate(6 6)"/>
</clipPath>
</defs>
</svg>
