<svg width="92" height="32" viewBox="0 0 92 32" fill="none" xmlns="http://www.w3.org/2000/svg">
<g clip-path="url(#clip0_821_26839)">
<path d="M75.3677 2.93364C74.9247 3.28919 74.6145 3.82253 74.4816 4.44475C74.393 5.02255 74.4816 5.73366 74.8804 6.35589C74.9247 6.40033 74.969 6.48922 75.0133 6.53366C75.1905 6.75589 75.4121 6.97811 75.6336 7.24477C78.1148 9.55589 81.1277 11.2448 83.6976 12.5337C85.4699 13.4226 86.489 14.4003 86.8877 15.9114C87.4637 13.1558 86.8877 11.7781 86.356 10.9781C85.4256 9.467 83.9191 8.75589 83.7862 8.667C81.6594 7.467 78.7351 6.04477 76.9628 4.53366C76.2982 3.95586 75.7665 3.37808 75.545 2.75586C75.5007 2.8003 75.4121 2.84475 75.3677 2.93364Z" fill="url(#paint0_linear_821_26839)"/>
<path d="M74.2151 7.91016C73.5505 8.53238 73.1074 9.46576 73.1074 10.2657C73.1074 10.888 73.196 11.5102 73.772 12.4879C75.8988 16.1324 82.6779 18.9769 84.3616 19.999C85.6022 20.7546 86.6213 21.8658 86.9757 23.5546C87.2859 21.6435 87.3745 19.599 86.8428 18.3546C86.1782 16.799 85.2477 15.9546 83.8742 15.1991C81.6588 13.9991 78.513 12.1768 76.1203 9.99904C75.2785 9.33238 74.5696 8.66571 74.2151 7.91016Z" fill="url(#paint1_linear_821_26839)"/>
<path d="M79.5763 4.53317C78.0699 5.4665 75.8988 6.2665 74.2594 7.91095C73.5505 8.53317 73.1074 9.4665 73.1074 10.2665C73.1074 10.8887 73.196 11.5109 73.772 12.4887C73.772 11.7332 74.5253 10.5776 75.9874 9.73317C77.5382 8.79984 80.1966 7.51095 81.836 5.64428C82.8551 4.48872 82.2348 3.06649 80.9942 2.71094C81.26 3.51094 80.108 4.1776 79.5763 4.53317Z" fill="url(#paint2_linear_821_26839)"/>
<path d="M78.0699 1.28889C77.3167 1.64444 76.3862 2.08889 75.5444 2.71111C75.4558 2.75555 75.4114 2.84444 75.3228 2.88889C74.8798 3.24444 74.5696 3.77778 74.4367 4.4C74.3481 4.97778 74.4367 5.68889 74.8354 6.31111C74.8797 6.35555 74.9241 6.44444 74.9684 6.48889C75.0127 5.55555 75.7216 4.88889 76.8736 4.31111C78.0256 3.68889 79.089 2.93333 79.7536 2.26667C80.5511 1.42222 79.8865 0.133333 79.1333 0C79.3105 0.666666 78.6016 1.06667 78.0699 1.28889Z" fill="url(#paint3_linear_821_26839)"/>
<path d="M72.5321 14.668C71.1143 16.668 71.2029 18.3124 72.1333 19.7791C73.7284 22.2235 77.7161 24.0902 80.9063 25.6902C82.457 26.4902 83.8749 27.3346 85.0269 28.668C85.7801 29.5569 86.4447 30.6235 86.8878 32.0013H86.9321C87.2866 30.0457 87.2423 27.5569 86.7549 26.1791C86.3118 24.8457 85.337 23.468 83.3875 22.2235C80.862 20.6235 76.9629 19.1569 74.6589 16.9791C73.7727 16.0457 72.8866 15.3791 72.5321 14.668C72.5764 14.668 72.5764 14.668 72.5321 14.668Z" fill="url(#paint4_linear_821_26839)"/>
<path d="M81.8367 8.13337C79.4441 9.91115 74.7475 12.1334 72.5764 14.6223C72.5764 14.6223 72.5764 14.6667 72.5321 14.6667C71.1143 16.6667 71.2029 18.3111 72.1333 19.7778C72.1333 19.0223 73.241 17.9556 74.7032 16.8C77.273 14.7111 81.8367 12.8445 84.4066 9.51115C85.337 8.31115 84.7167 6.3556 83.3432 5.82227C83.6533 6.57782 82.8115 7.37782 81.8367 8.13337Z" fill="url(#paint5_linear_821_26839)"/>
<path d="M15.0595 8.88867V20.2059H16.3938V25.3331H11.6917V23.6449H4.70211V25.3331H0V20.2059H1.2073C2.22397 18.2051 2.54168 16.0167 2.54168 12.7028V8.88867H15.0595ZM7.24378 12.3276V13.9533C7.24378 16.3918 6.98963 18.7053 6.03648 20.2059H10.1667V12.3276H7.24378Z" fill="#0767B0"/>
<path d="M18.166 8.88867H25.3212C28.7071 8.88867 31.3903 9.63761 31.3903 12.5709C31.3903 14.0688 30.3681 15.1922 29.4098 15.7539C31.007 16.1908 31.9014 17.5014 31.9014 19.1241C31.9014 22.4319 29.346 23.5553 25.449 23.5553H18.166V8.88867ZM23.0852 14.7553H25.1295C26.0878 14.7553 26.7906 14.3184 26.7906 13.4447C26.7906 12.3213 25.8323 12.2589 24.8101 12.2589H23.0852V14.7553ZM23.0852 20.1851H25.2573C26.4711 20.1851 27.3655 19.9355 27.3655 18.8121C27.3655 17.5014 26.2156 17.439 24.6823 17.439H23.0852V20.1851Z" fill="#0767B0"/>
<path d="M44.8386 8.88867V10.5738H45.9158C50.0448 10.5738 51.8397 13.0702 51.8397 16.066C51.8397 19.2489 49.985 21.5582 45.9756 21.5582H44.8386V23.5553H40.2313V21.5582H39.0945C35.0256 21.5582 33.2305 19.2489 33.2305 16.066C33.2305 13.0702 35.0854 10.5738 39.1543 10.5738H40.2313V8.88867H44.8386ZM40.2313 14.0064H39.633C38.1969 14.0064 37.6584 14.6929 37.6584 16.066C37.6584 17.3142 38.1969 18.1256 39.3937 18.1256H40.2912V14.0064H40.2313ZM44.8386 18.1256H45.7363C46.9331 18.1256 47.4714 17.3142 47.4714 16.066C47.4714 14.6929 46.9331 14.0064 45.4971 14.0064H44.8985V18.1256H44.8386Z" fill="#0767B0"/>
<path d="M57.3056 8.88867L59.7208 14.5193L62.0723 8.88867H67.3475L61.8179 20.0289C60.5472 22.5717 59.276 23.4194 57.4328 23.5405C56.6065 23.601 55.5262 23.4799 54.1913 23.1167V19.8472C55.0814 20.0289 55.5896 20.0894 56.1616 20.0289C56.6703 19.9684 57.0513 19.7867 57.3056 19.2418L51.8398 8.88867H57.3056Z" fill="#0767B0"/>
</g>
<defs>
<linearGradient id="paint0_linear_821_26839" x1="87.5027" y1="9.5846" x2="73.8022" y2="8.99923" gradientUnits="userSpaceOnUse">
<stop stop-color="#0668B3"/>
<stop offset="0.12" stop-color="#188CCC"/>
<stop offset="0.2909" stop-color="#0668B3"/>
<stop offset="0.62" stop-color="#0859A5"/>
<stop offset="0.8412" stop-color="#214397"/>
<stop offset="1" stop-color="#2E3790"/>
</linearGradient>
<linearGradient id="paint1_linear_821_26839" x1="87.5362" y1="16.1555" x2="72.6937" y2="15.31" gradientUnits="userSpaceOnUse">
<stop stop-color="#0668B3"/>
<stop offset="0.12" stop-color="#188CCC"/>
<stop offset="0.2909" stop-color="#0668B3"/>
<stop offset="0.62" stop-color="#0859A5"/>
<stop offset="0.8412" stop-color="#214397"/>
<stop offset="1" stop-color="#2E3790"/>
</linearGradient>
<linearGradient id="paint2_linear_821_26839" x1="82.3021" y1="12.8851" x2="73.0068" y2="2.60655" gradientUnits="userSpaceOnUse">
<stop stop-color="#71D0F6"/>
<stop offset="0.2992" stop-color="#40B5E7"/>
<stop offset="0.4" stop-color="#2FABE1"/>
<stop offset="0.4466" stop-color="#2FA1DA"/>
<stop offset="0.8254" stop-color="#2E55A5"/>
<stop offset="1" stop-color="#2E3790"/>
</linearGradient>
<linearGradient id="paint3_linear_821_26839" x1="79.5684" y1="6.54755" x2="75.6052" y2="0.931047" gradientUnits="userSpaceOnUse">
<stop stop-color="#71D0F6"/>
<stop offset="0.2992" stop-color="#40B5E7"/>
<stop offset="0.4" stop-color="#2FABE1"/>
<stop offset="0.4466" stop-color="#2FA1DA"/>
<stop offset="0.8254" stop-color="#2E55A5"/>
<stop offset="1" stop-color="#2E3790"/>
</linearGradient>
<linearGradient id="paint4_linear_821_26839" x1="87.4465" y1="23.6751" x2="70.4835" y2="22.8947" gradientUnits="userSpaceOnUse">
<stop stop-color="#0668B3"/>
<stop offset="0.12" stop-color="#188CCC"/>
<stop offset="0.2909" stop-color="#0668B3"/>
<stop offset="0.62" stop-color="#0859A5"/>
<stop offset="0.8412" stop-color="#214397"/>
<stop offset="1" stop-color="#2E3790"/>
</linearGradient>
<linearGradient id="paint5_linear_821_26839" x1="84.4026" y1="20.4241" x2="71.6027" y2="5.47686" gradientUnits="userSpaceOnUse">
<stop stop-color="#71D0F6"/>
<stop offset="0.2992" stop-color="#40B5E7"/>
<stop offset="0.4" stop-color="#2FABE1"/>
<stop offset="0.4466" stop-color="#2FA1DA"/>
<stop offset="0.8254" stop-color="#2E55A5"/>
<stop offset="1" stop-color="#2E3790"/>
</linearGradient>
<clipPath id="clip0_821_26839">
<rect width="92" height="32" fill="white"/>
</clipPath>
</defs>
</svg>
