<svg width="252" height="50" viewBox="0 0 252 50" fill="none" xmlns="http://www.w3.org/2000/svg">
<g clip-path="url(#clip0_524_53609)">
<path d="M117.762 4.58344C117.069 5.139 116.585 5.97233 116.377 6.94455C116.238 7.84737 116.377 8.95848 117 9.9307C117.069 10.0001 117.138 10.139 117.208 10.2085C117.485 10.5557 117.831 10.9029 118.177 11.3196C122.054 14.9307 126.762 17.5696 130.777 19.5835C133.546 20.9724 135.138 22.5002 135.762 24.8612C136.662 20.5556 135.762 18.4029 134.931 17.1529C133.477 14.7918 131.123 13.6807 130.915 13.5418C127.592 11.6668 123.023 9.44459 120.254 7.08348C119.215 6.18066 118.385 5.27789 118.038 4.30566C117.969 4.37511 117.831 4.44455 117.762 4.58344Z" fill="url(#paint0_linear_524_53609)"/>
<path d="M115.961 12.3613C114.923 13.3336 114.231 14.792 114.231 16.0419C114.231 17.0142 114.369 17.9864 115.269 19.5141C118.592 25.2086 129.185 29.6531 131.815 31.2502C133.754 32.4308 135.346 34.167 135.9 36.8058C136.385 33.8197 136.523 30.6252 135.692 28.6808C134.654 26.2502 133.2 24.9308 131.054 23.7503C127.592 21.8753 122.677 19.028 118.938 15.6252C117.623 14.5836 116.515 13.5419 115.961 12.3613Z" fill="url(#paint1_linear_524_53609)"/>
<path d="M124.338 7.08357C121.985 8.5419 118.592 9.7919 116.031 12.3613C114.923 13.3336 114.231 14.7919 114.231 16.0419C114.231 17.0141 114.369 17.9864 115.269 19.5141C115.269 18.3336 116.446 16.528 118.731 15.2086C121.154 13.7502 125.308 11.7363 127.869 8.81968C129.461 7.01412 128.492 4.79188 126.554 4.23633C126.969 5.48633 125.169 6.528 124.338 7.08357Z" fill="url(#paint2_linear_524_53609)"/>
<path d="M121.985 2.01389C120.808 2.56944 119.354 3.26389 118.039 4.23611C117.9 4.30555 117.831 4.44444 117.692 4.51389C117 5.06944 116.516 5.90278 116.308 6.875C116.169 7.77778 116.308 8.88889 116.931 9.86111C117 9.93055 117.069 10.0694 117.139 10.1389C117.208 8.68055 118.316 7.63889 120.116 6.73611C121.916 5.76389 123.577 4.58333 124.616 3.54167C125.862 2.22222 124.823 0.208333 123.646 0C123.923 1.04167 122.816 1.66667 121.985 2.01389Z" fill="url(#paint3_linear_524_53609)"/>
<path d="M113.331 22.917C111.115 26.042 111.254 28.6114 112.708 30.9031C115.2 34.7225 121.431 37.6392 126.415 40.1392C128.838 41.3892 131.054 42.7087 132.854 44.792C134.031 46.1809 135.069 47.8475 135.762 50.0003H135.831C136.385 46.9448 136.315 43.0559 135.554 40.9031C134.862 38.8198 133.338 36.667 130.292 34.7225C126.346 32.2225 120.254 29.9309 116.654 26.5281C115.269 25.0698 113.885 24.0281 113.331 22.917C113.4 22.917 113.4 22.917 113.331 22.917Z" fill="url(#paint4_linear_524_53609)"/>
<path d="M127.869 12.7088C124.131 15.4865 116.792 18.9588 113.4 22.8477C113.4 22.8477 113.4 22.9171 113.331 22.9171C111.115 26.0421 111.254 28.6115 112.708 30.9032C112.708 29.7226 114.438 28.056 116.723 26.2504C120.738 22.9865 127.869 20.0699 131.885 14.8615C133.338 12.9865 132.369 9.93099 130.223 9.09766C130.708 10.2782 129.392 11.5282 127.869 12.7088Z" fill="url(#paint5_linear_524_53609)"/>
<path d="M151.775 13.8887V18.353H152.308V20.8331H150.311V19.841H147.382V20.8331H145.385V18.353H145.917C146.317 17.6089 146.45 16.7408 146.45 15.3768V13.8887H151.775ZM148.447 15.2528V15.8728C148.447 16.8649 148.314 17.7329 147.914 18.353H149.645V15.2528H148.447Z" fill="#0767B0"/>
<path d="M157.112 13.8887L159.231 20.1387H157.362L157.112 19.3408H155.118L154.869 20.1387H153L155.118 13.8887H157.112ZM156.738 18.011L156.115 15.7503L155.492 18.011H156.738Z" fill="#0767B0"/>
<path d="M166.154 13.8887V20.0085H164.247V15.321H162.847V17.0137C162.847 19.4876 162.084 20.1387 160.94 20.1387C160.559 20.1387 160.305 20.1387 159.923 20.0085V18.5762C160.05 18.5762 160.177 18.5762 160.432 18.5762C160.813 18.5762 161.067 18.446 161.067 17.0137V13.8887H166.154Z" fill="#0767B0"/>
<path d="M169.22 16.0163H170.259C172.038 16.0163 173.077 16.6812 173.077 18.144C173.077 19.4738 172.039 20.1387 170.11 20.1387H166.846V13.8887H169.071V16.0163H169.22ZM169.22 18.5429H170.11C170.703 18.5429 171.148 18.4099 171.148 18.011C171.148 17.4791 170.555 17.4791 169.962 17.4791H169.368V18.5429H169.22Z" fill="#0767B0"/>
<path d="M175.846 16.1493H177.923V13.8887H180V20.1387H177.923V17.6121H175.846V20.1387H173.769V13.8887H175.846V16.1493Z" fill="#0767B0"/>
<path d="M186.923 13.8887V15.3514H183.248V16.2823H186.284V17.7451H183.248V18.6759H186.923V20.1387H180.692V13.8887H186.923Z" fill="#0767B0"/>
<path d="M187.615 13.8887H190.804C192.397 13.8887 193.556 14.1546 193.556 15.4844C193.556 16.1493 193.121 16.5483 192.687 16.8142C193.411 16.9472 193.846 17.6121 193.846 18.2769C193.846 19.7397 192.687 20.1387 190.948 20.1387H187.615V13.8887ZM189.789 16.4153H190.658C191.093 16.4153 191.383 16.2823 191.383 15.8833C191.383 15.3514 190.948 15.3514 190.513 15.3514H189.789V16.4153ZM189.789 18.6759H190.804C191.383 18.6759 191.818 18.5429 191.818 18.144C191.818 17.6121 191.238 17.6121 190.658 17.6121H189.934V18.6759H189.789Z" fill="#0767B0"/>
<path d="M200.769 16.9537C200.769 18.9921 199.399 20.1387 197.654 20.1387C195.785 20.1387 194.539 18.9921 194.539 16.9537C194.539 15.0427 195.785 13.8961 197.654 13.8961C199.772 13.7687 200.769 15.2975 200.769 16.9537ZM196.532 16.9537C196.532 17.7181 196.782 18.7373 197.654 18.7373C198.526 18.7373 198.775 17.9729 198.775 16.9537C198.775 16.1893 198.402 15.2975 197.654 15.2975C196.782 15.2975 196.532 16.1893 196.532 16.9537Z" fill="#0767B0"/>
<path d="M205.704 16.3887C205.704 15.7637 205.174 15.3887 204.643 15.3887C203.98 15.3887 203.45 16.0137 203.45 17.1387C203.45 18.0137 203.583 18.7637 204.643 18.7637C205.306 18.7637 205.571 18.3887 205.704 17.7637H207.692C207.56 19.2637 206.366 20.1387 204.775 20.1387C202.654 20.1387 201.461 18.8887 201.461 17.0137C201.461 15.1387 202.787 13.8887 204.51 13.8887C206.366 13.8887 207.427 14.7637 207.692 16.2637H205.704V16.3887Z" fill="#0767B0"/>
<path d="M212.587 20.1387H210.413V15.3514H208.385V13.8887H214.616V15.3514H212.587V20.1387Z" fill="#0767B0"/>
<path d="M221.539 16.9537C221.539 18.9921 220.168 20.1387 218.423 20.1387C216.554 20.1387 215.308 18.9921 215.308 16.9537C215.308 15.0427 216.554 13.8961 218.423 13.8961C220.542 13.7687 221.539 15.2975 221.539 16.9537ZM217.302 16.9537C217.302 17.7181 217.551 18.7373 218.423 18.7373C219.296 18.7373 219.545 17.9729 219.545 16.9537C219.545 16.1893 219.171 15.2975 218.423 15.2975C217.551 15.2975 217.302 16.1893 217.302 16.9537Z" fill="#0767B0"/>
<path d="M224.405 14.1491V15.7116C224.405 16.2324 224.694 16.3626 225.274 16.3626C225.708 16.3626 226.143 16.3626 226.288 16.2324V13.8887H228.462V20.1387H226.288V17.6647C225.854 17.7949 225.564 17.7949 224.405 17.7949C223.39 17.7949 222.231 17.2741 222.231 15.8418V13.8887H224.405V14.1491Z" fill="#0767B0"/>
<path d="M231.321 16.1493H233.218V13.8887H235.385V20.1387H233.218V17.6121H231.321V20.1387H229.154V13.8887H231.321V16.1493Z" fill="#0767B0"/>
<path d="M238.17 16.0712H239.217C240.891 16.0712 241.937 16.7657 241.937 18.1546C241.937 19.5435 240.891 20.1387 239.217 20.1387H236.077V13.8887H238.274V16.0712H238.17ZM238.17 18.6505H239.007C239.53 18.6505 239.949 18.5514 239.949 18.0553C239.949 17.4601 239.426 17.4601 238.798 17.4601H238.274V18.6505H238.17ZM245.077 20.1387H242.88V13.8887H245.077V20.1387Z" fill="#0767B0"/>
<path d="M252 14.0727V20.1389H249.923V18.2853L250.061 16.8025L247.707 20.1389H245.769V14.0727H246.808H247.846V16.1847L247.707 17.6675L250.061 14.0727H252ZM248.054 12.5C248.054 12.9943 248.608 12.9943 249.023 12.9943C249.577 12.9943 249.854 12.8708 249.854 12.5H250.546C250.546 13.365 249.715 13.7357 248.884 13.7357C247.915 13.7357 247.361 13.365 247.223 12.5H248.054Z" fill="#0767B0"/>
<path d="M150.915 23.6113V24.2949H151.457C153.409 24.2949 154.385 25.3692 154.385 26.6387C154.385 28.0058 153.517 28.9824 151.566 28.9824H151.024V29.8613H148.746V28.9824H148.204C146.252 28.9824 145.385 28.0058 145.385 26.6387C145.385 25.3692 146.252 24.2949 148.313 24.2949H148.855V23.6113H150.915ZM148.638 25.7598H148.313C147.662 25.7598 147.336 26.0527 147.336 26.6387C147.336 27.127 147.554 27.5176 148.204 27.5176H148.638V25.7598ZM150.915 27.4199H151.348C151.891 27.4199 152.216 27.0293 152.216 26.541C152.216 25.9551 151.891 25.6621 151.24 25.6621H150.915V27.4199Z" fill="#0767B0"/>
<path d="M161.188 23.6113V25.0002H157.474V25.8931H160.589V27.3812H157.474V28.3732H161.308V29.8613H155.077V23.6113H161.188Z" fill="#0767B0"/>
<path d="M168.321 23.6113V28.241H168.923V30.5558H166.916V29.6877H164.007V30.5558H162V28.241H162.502C162.903 27.3729 163.104 26.5049 163.104 25.1545V23.6113H168.321ZM165.01 24.9616V25.6368C165.01 26.6013 164.91 27.5658 164.508 28.241H166.314V24.9616H165.01Z" fill="#0767B0"/>
<path d="M175.611 23.6113V25.0002H172.084V25.8931H175.141V27.3812H172.084V28.3732H175.846V29.8613H169.615V23.6113H175.611Z" fill="#0767B0"/>
<path d="M178.834 29.8613H176.539V23.6113H179.818C181.786 23.6113 182.769 24.405 182.769 25.6947C182.769 27.0836 181.895 27.8772 179.927 27.8772H178.834V29.8613ZM178.834 26.3891H179.818C180.364 26.3891 180.692 26.1907 180.692 25.6947C180.692 25.0995 179.927 25.0002 179.49 25.0002H178.834V26.3891Z" fill="#0767B0"/>
<path d="M186.829 23.6113L189 29.8613H187.017L186.829 29.0676H184.846L184.657 29.8613H182.769L184.94 23.6113H186.829ZM186.451 27.6788L185.791 25.397L185.224 27.6788H186.451Z" fill="#0767B0"/>
<path d="M195.923 23.6113V29.7637H193.97V24.9785H192.575V26.7363C192.575 29.1777 191.832 29.8613 190.716 29.8613C190.343 29.8613 190.064 29.8613 189.692 29.7637V28.2988C189.785 28.2988 189.879 28.3965 190.158 28.3965C190.529 28.3965 190.716 28.2012 190.716 26.7363V23.6113H195.923Z" fill="#0767B0"/>
<path d="M198.841 25.7939H199.953C201.734 25.7939 202.846 26.4883 202.846 27.8772C202.846 29.2661 201.734 29.8613 199.953 29.8613H196.615V23.6113H198.952V25.7939H198.841ZM198.841 28.3732H199.731C200.287 28.3732 200.732 28.274 200.732 27.778C200.732 27.1828 200.176 27.1828 199.509 27.1828H198.952V28.3732H198.841Z" fill="#0767B0"/>
<path d="M205.615 25.7939H207.692V23.6113H209.769V29.8613H207.692V27.1828H205.615V29.8613H203.539V23.6113H205.615V25.7939Z" fill="#0767B0"/>
<path d="M212.555 25.7939H213.601C215.275 25.7939 216.322 26.4883 216.322 27.8772C216.322 29.2661 215.275 29.8613 213.601 29.8613H210.462V23.6113H212.659V25.7939H212.555ZM212.555 28.3732H213.392C213.915 28.3732 214.334 28.274 214.334 27.778C214.334 27.1828 213.81 27.1828 213.182 27.1828H212.659V28.3732H212.555ZM219.462 29.8613H217.264V23.6113H219.462V29.8613Z" fill="#0767B0"/>
<path d="M226.385 23.7954V29.8615H224.308V28.008L224.446 26.5252L222.092 29.8615H220.154V23.7954H221.192H222.231V25.9073L222.092 27.3902L224.446 23.7954H226.385ZM222.438 22.2227C222.438 22.717 222.992 22.717 223.408 22.717C223.962 22.717 224.238 22.5934 224.238 22.2227H224.931C224.931 23.0877 224.1 23.4584 223.269 23.4584C222.3 23.4584 221.746 23.0877 221.608 22.2227H222.438Z" fill="#0767B0"/>
<path d="M147.759 33.333L148.846 35.7437L149.934 33.333H152.308L149.836 38.0652C149.242 39.1365 148.648 39.583 147.857 39.583C147.462 39.583 147.066 39.4937 146.868 39.4045V38.0652C146.967 38.0652 147.066 38.1545 147.363 38.1545C147.561 38.1545 147.759 38.0652 147.857 37.7973L145.385 33.333H147.759Z" fill="#0767B0"/>
<path d="M155.077 35.5389H157.06V33.333H159.231V39.583H157.06V37.0095H155.077V39.583H153V33.333H155.077V35.5389Z" fill="#0767B0"/>
<path d="M166.154 33.333V39.583H164.141V37.6529L164.237 35.9984L161.936 39.583H159.923V33.333H161.936V35.3551L161.84 36.9176L164.237 33.333H166.154Z" fill="#0767B0"/>
<path d="M166.947 33.333H170.162C171.67 33.333 172.876 33.6953 172.876 34.8729C172.876 35.5069 172.374 35.9598 171.971 36.2315C172.675 36.4127 173.077 36.9562 173.077 37.6809C173.077 39.0395 171.871 39.583 170.162 39.583H166.846V33.333H166.947ZM169.158 35.7786H170.062C170.464 35.7786 170.866 35.5975 170.866 35.2352C170.866 34.7823 170.464 34.7823 169.962 34.7823H169.158V35.7786ZM169.158 38.0431H170.162C170.665 38.0431 171.168 37.9526 171.168 37.4997C171.168 36.9562 170.665 36.9562 169.962 36.9562H169.258V38.0431H169.158Z" fill="#0767B0"/>
<path d="M180 33.333V34.8036H176.217V35.7227H179.333V37.1933H176.217V38.1125H180V39.583H173.769V33.333H180Z" fill="#0767B0"/>
<path d="M182.904 39.583H180.692V33.333H184.009C186.019 33.333 186.923 34.1602 186.923 35.447C186.923 36.8256 186.019 37.6529 184.109 37.6529H183.004V39.583H182.904ZM182.904 36.1822H183.808C184.31 36.1822 184.712 35.9984 184.712 35.447C184.712 34.8955 184.009 34.8036 183.507 34.8036H182.904V36.1822Z" fill="#0767B0"/>
<path d="M192.014 35.7636C191.922 35.1559 191.555 34.8087 190.914 34.8087C190.181 34.8087 189.723 35.4163 189.723 36.5448C189.723 37.4129 189.906 38.1941 190.914 38.1941C191.555 38.1941 191.922 37.7601 191.922 37.1525H193.846C193.663 38.715 192.472 39.583 190.914 39.583C188.898 39.583 187.615 38.3677 187.615 36.458C187.615 34.5483 188.99 33.333 190.731 33.333C192.655 33.333 193.663 34.2011 193.846 35.7636H192.014Z" fill="#0767B0"/>
<path d="M200.769 33.333V39.583H198.692V37.6529L198.881 35.9984L196.521 39.583H194.539V33.333H196.615V35.3551L196.426 36.9176L198.787 33.333H200.769Z" fill="#0767B0"/>
<path d="M206.263 39.583H203.695V34.8036H201.461V33.333H208.385V34.8036H206.263V39.583Z" fill="#0767B0"/>
<path d="M215.308 33.333V34.8036H211.482V35.7227H214.543V37.1933H211.482V38.1124H215.308V39.583H209.077V33.333H215.308Z" fill="#0767B0"/>
<path d="M220.221 39.583H218.01V34.8036H216V33.333H222.231V34.8036H220.221V39.583Z" fill="#0767B0"/>
<path d="M23.5304 13.8887V31.5719H25.6154V39.5831H18.2683V36.9453H7.34704V39.5831H0V31.5719H1.88641C3.47495 28.4456 3.97137 25.0262 3.97137 19.8482V13.8887H23.5304ZM11.3184 19.262V21.8021C11.3184 25.6123 10.9213 29.2272 9.432 31.5719H15.8855V19.262H11.3184Z" fill="#0767B0"/>
<path d="M28.3845 13.8887H39.5645C44.855 13.8887 49.0475 15.0589 49.0475 19.6422C49.0475 21.9826 47.4503 23.738 45.953 24.6156C48.4486 25.2983 49.8461 27.3461 49.8461 29.8816C49.8461 35.05 45.8532 36.8053 39.7641 36.8053H28.3845V13.8887ZM36.0707 23.0553H39.265C40.7624 23.0553 41.8604 22.3727 41.8604 21.0075C41.8604 19.2521 40.363 19.1546 38.766 19.1546H36.0707V23.0553ZM36.0707 31.5394H39.4647C41.3613 31.5394 42.7588 31.1493 42.7588 29.394C42.7588 27.3461 40.962 27.2486 38.5663 27.2486H36.0707V31.5394Z" fill="#0767B0"/>
<path d="M70.0609 13.8887V16.5217H71.7439C78.1955 16.5217 81 20.4223 81 25.1032C81 30.0766 78.102 33.6848 71.8373 33.6848H70.0609V36.8053H62.862V33.6848H61.0856C54.7279 33.6848 51.9231 30.0766 51.9231 25.1032C51.9231 20.4223 54.8214 16.5217 61.1791 16.5217H62.862V13.8887H70.0609ZM62.862 21.8851H61.9271C59.6832 21.8851 58.8417 22.9578 58.8417 25.1032C58.8417 27.0535 59.6832 28.3213 61.5531 28.3213H62.9555V21.8851H62.862ZM70.0609 28.3213H71.4635C73.3334 28.3213 74.1746 27.0535 74.1746 25.1032C74.1746 22.9578 73.3334 21.8851 71.0896 21.8851H70.1543V28.3213H70.0609Z" fill="#0767B0"/>
<path d="M89.5403 13.8887L93.3141 22.6866L96.9881 13.8887H105.231L96.5908 31.2953C94.6052 35.2685 92.619 36.5929 89.739 36.7821C88.4478 36.8767 86.76 36.6875 84.6741 36.1199V31.0115C86.0649 31.2953 86.859 31.3899 87.7528 31.2953C88.5475 31.2007 89.1429 30.9169 89.5403 30.0654L81 13.8887H89.5403Z" fill="#0767B0"/>
</g>
<defs>
<linearGradient id="paint0_linear_524_53609" x1="136.722" y1="14.9756" x2="115.315" y2="14.0609" gradientUnits="userSpaceOnUse">
<stop stop-color="#0668B3"/>
<stop offset="0.12" stop-color="#188CCC"/>
<stop offset="0.2909" stop-color="#0668B3"/>
<stop offset="0.62" stop-color="#0859A5"/>
<stop offset="0.8412" stop-color="#214397"/>
<stop offset="1" stop-color="#2E3790"/>
</linearGradient>
<linearGradient id="paint1_linear_524_53609" x1="136.776" y1="25.2447" x2="113.584" y2="23.9236" gradientUnits="userSpaceOnUse">
<stop stop-color="#0668B3"/>
<stop offset="0.12" stop-color="#188CCC"/>
<stop offset="0.2909" stop-color="#0668B3"/>
<stop offset="0.62" stop-color="#0859A5"/>
<stop offset="0.8412" stop-color="#214397"/>
<stop offset="1" stop-color="#2E3790"/>
</linearGradient>
<linearGradient id="paint2_linear_524_53609" x1="128.597" y1="20.1335" x2="114.073" y2="4.07322" gradientUnits="userSpaceOnUse">
<stop stop-color="#71D0F6"/>
<stop offset="0.2992" stop-color="#40B5E7"/>
<stop offset="0.4" stop-color="#2FABE1"/>
<stop offset="0.4466" stop-color="#2FA1DA"/>
<stop offset="0.8254" stop-color="#2E55A5"/>
<stop offset="1" stop-color="#2E3790"/>
</linearGradient>
<linearGradient id="paint3_linear_524_53609" x1="124.326" y1="10.2306" x2="118.134" y2="1.45476" gradientUnits="userSpaceOnUse">
<stop stop-color="#71D0F6"/>
<stop offset="0.2992" stop-color="#40B5E7"/>
<stop offset="0.4" stop-color="#2FABE1"/>
<stop offset="0.4466" stop-color="#2FA1DA"/>
<stop offset="0.8254" stop-color="#2E55A5"/>
<stop offset="1" stop-color="#2E3790"/>
</linearGradient>
<linearGradient id="paint4_linear_524_53609" x1="136.635" y1="36.9907" x2="110.13" y2="35.7712" gradientUnits="userSpaceOnUse">
<stop stop-color="#0668B3"/>
<stop offset="0.12" stop-color="#188CCC"/>
<stop offset="0.2909" stop-color="#0668B3"/>
<stop offset="0.62" stop-color="#0859A5"/>
<stop offset="0.8412" stop-color="#214397"/>
<stop offset="1" stop-color="#2E3790"/>
</linearGradient>
<linearGradient id="paint5_linear_524_53609" x1="131.878" y1="31.913" x2="111.879" y2="8.55797" gradientUnits="userSpaceOnUse">
<stop stop-color="#71D0F6"/>
<stop offset="0.2992" stop-color="#40B5E7"/>
<stop offset="0.4" stop-color="#2FABE1"/>
<stop offset="0.4466" stop-color="#2FA1DA"/>
<stop offset="0.8254" stop-color="#2E55A5"/>
<stop offset="1" stop-color="#2E3790"/>
</linearGradient>
<clipPath id="clip0_524_53609">
<rect width="252" height="50" fill="white"/>
</clipPath>
</defs>
</svg>
