<svg width="122" height="152" viewBox="0 0 122 152" fill="none" xmlns="http://www.w3.org/2000/svg">
<path d="M16 27.4824C14.5584 21.8643 10.1357 17.4416 4.5176 16C10.1357 14.5584 14.5584 10.1357 16 4.5176C17.4416 10.1357 21.8643 14.5584 27.4824 16C21.8643 17.4416 17.4416 21.8643 16 27.4824Z" stroke="white"/>
<rect x="31.5" y="1.5" width="29" height="29" rx="14.5" stroke="white"/>
<path d="M76.3536 6.35355L81 1.70711L90.2929 11L85.6464 15.6464L85.2929 16L85.6464 16.3536L90.2929 21L81 30.2929L76.3536 25.6464L76 25.2929L75.6464 25.6464L71 30.2929L61.7071 21L66.3536 16.3536L66.7071 16L66.3536 15.6464L61.7071 11L71 1.70711L75.6464 6.35355L76 6.70711L76.3536 6.35355Z" stroke="white"/>
<path d="M106 1C105.998 1 105.995 1 105.993 1C105.754 9.17238 99.1724 15.7537 91 15.9932C91 15.9955 91 15.9977 91 16M106 1C106.002 1 106.005 1 106.007 1C106.246 9.17238 112.828 15.7537 121 15.9932C121 15.9955 121 15.9977 121 16M106 1C114.284 1 121 7.71573 121 16M106 1C97.7157 1 91 7.71573 91 16M121 16C121 16.0023 121 16.0045 121 16.0068C112.828 16.2463 106.246 22.8276 106.007 31C106.005 31 106.002 31 106 31M121 16C121 24.2843 114.284 31 106 31M106 31C105.998 31 105.995 31 105.993 31C105.754 22.8276 99.1724 16.2463 91 16.0068C91 16.0045 91 16.0023 91 16M106 31C97.7157 31 91 24.2843 91 16" stroke="white"/>
<path d="M16 31C15.9977 31 15.9955 31 15.9932 31C15.7537 39.1724 9.17238 45.7537 1 45.9932C1 45.9955 1 45.9977 1 46M16 31C16.0023 31 16.0045 31 16.0068 31C16.2463 39.1724 22.8276 45.7537 31 45.9932C31 45.9955 31 45.9977 31 46M16 31C24.2843 31 31 37.7157 31 46M16 31C7.71573 31 1 37.7157 1 46M31 46C31 46.0023 31 46.0045 31 46.0068C22.8276 46.2463 16.2463 52.8276 16.0068 61C16.0045 61 16.0023 61 16 61M31 46C31 54.2843 24.2843 61 16 61M16 61C15.9977 61 15.9955 61 15.9932 61C15.7537 52.8276 9.17238 46.2463 1 46.0068C1 46.0045 1 46.0023 1 46M16 61C7.71573 61 1 54.2843 1 46" stroke="white"/>
<path d="M46 57.4824C44.5584 51.8643 40.1357 47.4416 34.5176 46C40.1357 44.5584 44.5584 40.1357 46 34.5176C47.4416 40.1357 51.8643 44.5584 57.4824 46C51.8643 47.4416 47.4416 51.8643 46 57.4824Z" stroke="white"/>
<rect x="61.5" y="31.5" width="29" height="29" rx="14.5" stroke="white"/>
<path d="M106.354 36.3536L111 31.7071L120.293 41L115.646 45.6464L115.293 46L115.646 46.3536L120.293 51L111 60.2929L106.354 55.6464L106 55.2929L105.646 55.6464L101 60.2929L91.7071 51L96.3536 46.3536L96.7071 46L96.3536 45.6464L91.7071 41L101 31.7071L105.646 36.3536L106 36.7071L106.354 36.3536Z" stroke="white"/>
<path d="M16 87.4824C14.5584 81.8643 10.1357 77.4416 4.5176 76C10.1357 74.5584 14.5584 70.1357 16 64.5176C17.4416 70.1357 21.8643 74.5584 27.4824 76C21.8643 77.4416 17.4416 81.8643 16 87.4824Z" stroke="white"/>
<rect x="31.5" y="61.5" width="29" height="29" rx="14.5" stroke="white"/>
<path d="M76.3536 66.3536L81 61.7071L90.2929 71L85.6464 75.6464L85.2929 76L85.6464 76.3536L90.2929 81L81 90.2929L76.3536 85.6464L76 85.2929L75.6464 85.6464L71 90.2929L61.7071 81L66.3536 76.3536L66.7071 76L66.3536 75.6464L61.7071 71L71 61.7071L75.6464 66.3536L76 66.7071L76.3536 66.3536Z" stroke="white"/>
<path d="M106 61C105.998 61 105.995 61 105.993 61C105.754 69.1724 99.1724 75.7537 91 75.9932C91 75.9955 91 75.9977 91 76M106 61C106.002 61 106.005 61 106.007 61C106.246 69.1724 112.828 75.7537 121 75.9932C121 75.9955 121 75.9977 121 76M106 61C114.284 61 121 67.7157 121 76M106 61C97.7157 61 91 67.7157 91 76M121 76C121 76.0023 121 76.0045 121 76.0068C112.828 76.2463 106.246 82.8276 106.007 91C106.005 91 106.002 91 106 91M121 76C121 84.2843 114.284 91 106 91M106 91C105.998 91 105.995 91 105.993 91C105.754 82.8276 99.1724 76.2463 91 76.0068C91 76.0045 91 76.0023 91 76M106 91C97.7157 91 91 84.2843 91 76" stroke="white"/>
<path d="M16.3536 96.3536L21 91.7071L30.2929 101L25.6464 105.646L25.2929 106L25.6464 106.354L30.2929 111L21 120.293L16.3536 115.646L16 115.293L15.6464 115.646L11 120.293L1.70711 111L6.35355 106.354L6.70711 106L6.35355 105.646L1.70711 101L11 91.7071L15.6464 96.3536L16 96.7071L16.3536 96.3536Z" stroke="white"/>
<path d="M46 91C45.9977 91 45.9955 91 45.9932 91C45.7537 99.1724 39.1724 105.754 31 105.993C31 105.995 31 105.998 31 106M46 91C46.0023 91 46.0045 91 46.0068 91C46.2463 99.1724 52.8276 105.754 61 105.993C61 105.995 61 105.998 61 106M46 91C54.2843 91 61 97.7157 61 106M46 91C37.7157 91 31 97.7157 31 106M61 106C61 106.002 61 106.005 61 106.007C52.8276 106.246 46.2463 112.828 46.0068 121C46.0045 121 46.0023 121 46 121M61 106C61 114.284 54.2843 121 46 121M46 121C45.9977 121 45.9955 121 45.9932 121C45.7537 112.828 39.1724 106.246 31 106.007C31 106.005 31 106.002 31 106M46 121C37.7157 121 31 114.284 31 106" stroke="white"/>
<path d="M76 117.482C74.5584 111.864 70.1357 107.442 64.5176 106C70.1357 104.558 74.5584 100.136 76 94.5176C77.4416 100.136 81.8643 104.558 87.4824 106C81.8643 107.442 77.4416 111.864 76 117.482Z" stroke="white"/>
<rect x="91.5" y="91.5" width="29" height="29" rx="14.5" stroke="white"/>
<rect x="1.5" y="121.5" width="29" height="29" rx="14.5" stroke="white"/>
<path d="M46.3536 126.354L51 121.707L60.2929 131L55.6464 135.646L55.2929 136L55.6464 136.354L60.2929 141L51 150.293L46.3536 145.646L46 145.293L45.6464 145.646L41 150.293L31.7071 141L36.3536 136.354L36.7071 136L36.3536 135.646L31.7071 131L41 121.707L45.6464 126.354L46 126.707L46.3536 126.354Z" stroke="white"/>
<path d="M76 121C75.9977 121 75.9955 121 75.9932 121C75.7537 129.172 69.1724 135.754 61 135.993C61 135.995 61 135.998 61 136M76 121C76.0023 121 76.0045 121 76.0068 121C76.2463 129.172 82.8276 135.754 91 135.993C91 135.995 91 135.998 91 136M76 121C84.2843 121 91 127.716 91 136M76 121C67.7157 121 61 127.716 61 136M91 136C91 136.002 91 136.005 91 136.007C82.8276 136.246 76.2463 142.828 76.0068 151C76.0045 151 76.0023 151 76 151M91 136C91 144.284 84.2843 151 76 151M76 151C75.9977 151 75.9955 151 75.9932 151C75.7537 142.828 69.1724 136.246 61 136.007C61 136.005 61 136.002 61 136M76 151C67.7157 151 61 144.284 61 136" stroke="white"/>
<path d="M106 147.482C104.558 141.864 100.136 137.442 94.5176 136C100.136 134.558 104.558 130.136 106 124.518C107.442 130.136 111.864 134.558 117.482 136C111.864 137.442 107.442 141.864 106 147.482Z" stroke="white"/>
</svg>
